<svg width="169" height="109" viewBox="0 0 169 109" fill="none" xmlns="http://www.w3.org/2000/svg">
<path d="M14.5901 74.7305H32.5259V81.7501H5.88928V28.7216H14.5901V74.7305Z" fill="#2D5BD0"/>
<path d="M36.9019 60.5387C36.9019 56.3168 37.7669 52.5781 39.4969 49.3226C41.2777 46.0671 43.6692 43.5492 46.6712 41.7689C49.7241 39.9377 53.0823 39.0221 56.7458 39.0221C60.0531 39.0221 62.9279 39.6834 65.3702 41.0059C67.8634 42.2775 69.8478 43.8799 71.3234 45.8128V39.7088H80.1005V81.7501H71.3234V75.4935C69.8478 77.4773 67.838 79.1304 65.2939 80.453C62.7498 81.7755 59.8495 82.4368 56.5931 82.4368C52.9805 82.4368 49.6732 81.5212 46.6712 79.69C43.6692 77.8079 41.2777 75.2137 39.4969 71.9074C37.7669 68.5502 36.9019 64.7606 36.9019 60.5387ZM71.3234 60.6913C71.3234 57.7919 70.7128 55.274 69.4916 53.1376C68.3214 51.0012 66.7695 49.3735 64.836 48.2544C62.9024 47.1353 60.8163 46.5758 58.5775 46.5758C56.3387 46.5758 54.2526 47.1353 52.319 48.2544C50.3855 49.3226 48.8082 50.9249 47.587 53.0613C46.4168 55.1468 45.8316 57.6393 45.8316 60.5387C45.8316 63.4381 46.4168 65.9814 47.587 68.1687C48.8082 70.356 50.3855 72.0345 52.319 73.2045C54.3034 74.3236 56.3896 74.8831 58.5775 74.8831C60.8163 74.8831 62.9024 74.3236 64.836 73.2045C66.7695 72.0854 68.3214 70.4577 69.4916 68.3213C70.7128 66.134 71.3234 63.5907 71.3234 60.6913Z" fill="#2D5BD0"/>
<path d="M106.793 82.4368C103.486 82.4368 100.509 81.8518 97.8634 80.6819C95.2684 79.4611 93.2077 77.8333 91.6812 75.7987C90.1548 73.7132 89.3407 71.3987 89.2389 68.8554H98.245C98.3976 70.6357 99.2372 72.1363 100.764 73.3571C102.341 74.527 104.3 75.112 106.64 75.112C109.083 75.112 110.965 74.6542 112.288 73.7386C113.662 72.7721 114.349 71.5513 114.349 70.0762C114.349 68.4993 113.586 67.3294 112.059 66.5664C110.584 65.8034 108.218 64.9641 104.961 64.0485C101.807 63.1838 99.2372 62.3445 97.2528 61.5306C95.2684 60.7167 93.5384 59.4705 92.0628 57.7919C90.6382 56.1133 89.9258 53.9006 89.9258 51.1538C89.9258 48.9157 90.5873 46.881 91.9102 45.0498C93.2331 43.1677 95.1158 41.6926 97.5581 40.6244C100.051 39.5562 102.901 39.0221 106.106 39.0221C110.889 39.0221 114.731 40.2429 117.631 42.6845C120.582 45.0752 122.159 48.3561 122.363 52.5272H113.662C113.509 50.6451 112.746 49.1446 111.372 48.0255C109.999 46.9064 108.141 46.3469 105.801 46.3469C103.511 46.3469 101.756 46.7793 100.535 47.644C99.3135 48.5087 98.7029 49.6532 98.7029 51.0775C98.7029 52.1966 99.11 53.1376 99.9241 53.9006C100.738 54.6636 101.73 55.274 102.901 55.7318C104.071 56.1387 105.801 56.6728 108.091 57.3341C111.144 58.1479 113.637 58.9873 115.57 59.852C117.555 60.6659 119.259 61.8867 120.684 63.5144C122.109 65.1421 122.846 67.304 122.897 69.9999C122.897 72.3906 122.236 74.527 120.913 76.4091C119.59 78.2912 117.707 79.7663 115.265 80.8345C112.873 81.9027 110.05 82.4368 106.793 82.4368Z" fill="#2D5BD0"/>
<path d="M148.937 60.7676L168.323 81.7501H156.569L140.999 63.667V81.7501H132.299V25.2881H140.999V58.0971L156.264 39.7088H168.323L148.937 60.7676Z" fill="#2D5BD0"/>
</svg>
